<mxfile host="app.diagrams.net" modified="2023-11-16T12:52:49.021Z" agent="Mozilla/5.0 (X11; Linux x86_64; rv:109.0) Gecko/20100101 Firefox/115.0" etag="9iXBF9Fv6MKEV0dlDOj1" version="22.1.2" type="github">
  <diagram id="prtHgNgQTEPvFCAcTncT" name="Page-1">
    <mxGraphModel dx="1434" dy="740" grid="1" gridSize="10" guides="1" tooltips="1" connect="1" arrows="1" fold="1" page="1" pageScale="1" pageWidth="2339" pageHeight="3300" math="0" shadow="0">
      <root>
        <mxCell id="0" />
        <mxCell id="1" parent="0" />
        <mxCell id="4L-UqnIKCtCiZYlzjlIr-7" style="edgeStyle=orthogonalEdgeStyle;rounded=0;orthogonalLoop=1;jettySize=auto;html=1;exitX=0.75;exitY=0.1;exitDx=0;exitDy=0;exitPerimeter=0;" edge="1" parent="1" source="4L-UqnIKCtCiZYlzjlIr-1">
          <mxGeometry relative="1" as="geometry">
            <mxPoint x="693" y="840" as="targetPoint" />
          </mxGeometry>
        </mxCell>
        <mxCell id="4L-UqnIKCtCiZYlzjlIr-1" value="&lt;div&gt;Benutzer&lt;/div&gt;&lt;div&gt;&lt;br&gt;&lt;/div&gt;" style="shape=umlActor;verticalLabelPosition=bottom;verticalAlign=top;html=1;outlineConnect=0;" vertex="1" parent="1">
          <mxGeometry x="650" y="850" width="30" height="60" as="geometry" />
        </mxCell>
        <mxCell id="4L-UqnIKCtCiZYlzjlIr-3" value="Spontanes Meeting planen" style="rounded=0;whiteSpace=wrap;html=1;horizontal=1;fontFamily=Comic Sans MS;fontSize=19;" vertex="1" parent="1">
          <mxGeometry x="840" y="570" width="300" height="130" as="geometry" />
        </mxCell>
        <mxCell id="4L-UqnIKCtCiZYlzjlIr-6" value="" style="shape=flexArrow;endArrow=classic;html=1;rounded=0;" edge="1" parent="1" source="4L-UqnIKCtCiZYlzjlIr-1" target="4L-UqnIKCtCiZYlzjlIr-3">
          <mxGeometry width="50" height="50" relative="1" as="geometry">
            <mxPoint x="800" y="650" as="sourcePoint" />
            <mxPoint x="850" y="600" as="targetPoint" />
          </mxGeometry>
        </mxCell>
      </root>
    </mxGraphModel>
  </diagram>
</mxfile>
